<svg width="157" height="48" viewBox="0 0 157 48" fill="none" xmlns="http://www.w3.org/2000/svg">
<path d="M69.3574 14.2394C76.0809 14.2394 80.071 18.7322 80.1653 23.7277H74.5414C74.3215 21.3085 72.4364 19.2978 69.3574 19.2978C66.1527 19.2978 63.765 21.6856 63.765 26.4925C63.765 31.2681 66.1527 33.6559 69.3574 33.6559C72.4364 33.6559 74.3215 31.6765 74.5414 29.2259H80.1653C80.071 34.2214 76.1123 38.7142 69.4202 38.7142C62.7282 38.7142 58.2668 34.3471 58.2668 26.4925C58.2668 18.6066 62.7282 14.2394 69.3574 14.2394ZM91.3325 20.4288C97.2077 20.4288 100.569 24.3875 100.569 29.6344C100.569 34.8812 97.2077 38.8399 91.3325 38.8399C85.4258 38.8399 82.0641 34.8812 82.0641 29.6344C82.0641 24.3875 85.4258 20.4288 91.3325 20.4288ZM91.3325 24.8902C88.7876 24.8902 87.1853 26.7439 87.1853 29.6344C87.1853 32.5248 88.7876 34.3785 91.3325 34.3785C93.8773 34.3785 95.4482 32.5248 95.4482 29.6344C95.4482 26.7439 93.8773 24.8902 91.3325 24.8902ZM115.787 22.8794V20.8373H120.689V39.4682C120.689 43.3013 118.332 45.689 114.499 45.689H106.142V41.5418H113.714C115.128 41.5418 115.787 40.8506 115.787 39.4682V35.8552C114.625 37.3632 112.803 38.3058 110.321 38.3058C105.765 38.3058 102.529 35.1325 102.529 29.3202C102.529 23.5392 105.765 20.4288 110.321 20.4288C112.803 20.4288 114.625 21.34 115.787 22.8794ZM111.734 33.8758C114.154 33.8758 115.787 32.085 115.787 29.1945C115.787 26.3354 114.154 24.6389 111.734 24.6389C109.378 24.6389 107.65 26.3354 107.65 29.1945C107.65 32.1164 109.378 33.8758 111.734 33.8758ZM135.144 16.9728H132.725C131.531 16.9728 130.966 17.5698 130.966 18.7008V20.8373H134.642V24.9845H130.966V38.4H126.065V24.9845H123.237V20.8373H126.065V18.7322C126.065 15.3077 128.107 13.1712 131.72 13.1712H135.144V16.9728ZM145.532 31.7708L150.088 20.8373H154.832L145.093 44.181H140.348L143.05 37.7402L136.201 20.8373H141.134L145.532 31.7708Z" fill="#3D3D3D"/>
<path d="M1.99392 7.77142C1.99392 4.74174 4.44996 2.28571 7.47963 2.28571H31.0857C34.1154 2.28571 36.5714 4.74174 36.5714 7.77142V17.3714C36.5714 20.4011 34.1154 22.8571 31.0857 22.8571H2.7871H0L1.49818 20.281C1.82287 19.7227 1.99392 19.0883 1.99392 18.4425L1.99392 7.77142Z" fill="#0BB406"/>
<path d="M46.0061 30.6286C46.0061 27.5989 43.55 25.1429 40.5204 25.1429H16.9143C13.8846 25.1429 11.4286 27.5989 11.4286 30.6286V40.2286C11.4286 43.2583 13.8846 45.7143 16.9143 45.7143H45.2129H48L46.5018 43.1382C46.1771 42.5799 46.0061 41.9455 46.0061 41.2996L46.0061 30.6286Z" fill="#85DA83" fill-opacity="0.5"/>
</svg>
